<svg width="22" height="22" viewBox="0 0 22 22" fill="none" xmlns="http://www.w3.org/2000/svg">
<path d="M16.5511 4.16732C15.4416 2.27059 13.3897 1 10.9964 1C7.4008 1 4.56963 3.87439 4.56963 7.42251V8.79197C4.56963 10.9926 3.93513 13.131 2.75887 14.9838M19.2376 14.9874C18.4176 13.6949 17.861 12.2632 17.5975 10.7692M13.6346 18.3966C13.6346 19.8356 12.4547 21 10.9964 21C9.53815 21 8.35819 19.8356 8.35819 18.3966M19.2597 18.3965H2.73655C1.77922 18.3965 1 17.6312 1 16.6829C1 15.7382 1.77551 14.9692 2.73655 14.9692H19.2635C20.2208 14.9692 21 15.7345 21 16.6829C20.9963 17.6312 20.2171 18.3965 19.2597 18.3965ZM20.306 7.47385C20.306 9.29187 18.8125 10.7657 16.9702 10.7657C15.1279 10.7657 13.6344 9.29187 13.6344 7.47385C13.6344 5.65584 15.1279 4.18204 16.9702 4.18204C18.8125 4.18204 20.306 5.65584 20.306 7.47385Z" stroke="white" stroke-width="1.5" stroke-miterlimit="10" stroke-linejoin="round"/>
</svg>
