<svg width="24" height="24" viewBox="0 0 24 24" fill="none" xmlns="http://www.w3.org/2000/svg">
<path d="M15.0362 9.54545C15.0362 13.1604 12.1057 16.0909 8.49075 16.0909C7.29853 16.0909 6.18077 15.7722 5.21802 15.2152L1.3999 16.0909L2.49075 12.1655C2.13993 11.3632 1.94529 10.4771 1.94529 9.54545C1.94529 5.9305 4.87579 3 8.49075 3C12.1057 3 15.0362 5.9305 15.0362 9.54545Z" stroke="white" stroke-width="1.5" stroke-linejoin="round"/>
<path d="M18.1106 7.27246C20.4213 8.28292 22.036 10.5891 22.036 13.2725C22.036 14.2041 21.8414 15.0902 21.4906 15.8925L22.5425 19.8179L18.7633 18.9423C17.8005 19.4992 16.6828 19.8179 15.4906 19.8179C14.2983 19.8179 13.1806 19.4992 12.2178 18.9423" stroke="white" stroke-width="1.5" stroke-linejoin="round"/>
<path d="M10.0768 7.63619C10.0768 8.14129 9.71894 8.61113 9.15272 8.82868L9.56091 9.89471C10.5666 9.50778 11.216 8.62141 11.216 7.63619L11.266 7.63631C11.266 7.63627 11.266 7.63623 11.266 7.63619C11.2677 6.95097 10.9676 6.31199 10.4257 5.83779C9.90466 5.38102 9.21774 5.13164 8.49046 5.13164C7.76309 5.13164 7.07624 5.38277 6.55529 5.83773L6.55526 5.83776C6.01327 6.312 5.71318 6.951 5.71318 7.63619V7.76573C5.71318 7.86835 5.79693 7.9521 5.89955 7.9521H6.71773C6.82034 7.9521 6.90409 7.86835 6.90409 7.76573V7.63619C6.90409 6.92025 7.60744 6.32255 8.49046 6.32255C9.37348 6.32255 10.0768 6.92025 10.0768 7.63619ZM7.75864 12.9544C7.75864 13.1485 7.83574 13.3346 7.97298 13.4718C8.11022 13.6091 8.29637 13.6862 8.49046 13.6862C8.68455 13.6862 8.87069 13.6091 9.00793 13.4718C9.14517 13.3346 9.22227 13.1485 9.22227 12.9544C9.22227 12.7603 9.14517 12.5741 9.00793 12.4369C8.87069 12.2997 8.68455 12.2225 8.49046 12.2225C8.29637 12.2225 8.11022 12.2997 7.97298 12.4369C7.83574 12.5741 7.75864 12.7603 7.75864 12.9544Z" fill="white" stroke="white" stroke-width="0.1"/>
</svg>
