<svg width="24" height="24" viewBox="0 0 24 24" fill="none" xmlns="http://www.w3.org/2000/svg">
<path d="M8.69995 3.94922C10.2176 3.94922 11.45 5.18153 11.45 6.69922C11.45 8.2169 10.2176 9.44922 8.69995 9.44922C7.17867 9.44922 5.94995 8.21749 5.94995 6.69922C5.94995 5.18095 7.17867 3.94922 8.69995 3.94922Z" stroke="white" stroke-width="1.5"/>
<path d="M19.9902 8.97942C20.105 8.71742 19.983 8.41234 19.721 8.30107C19.459 8.18622 19.1539 8.30825 19.039 8.57026L18.6299 9.52857C18.3499 9.48909 18.07 9.50703 17.869 9.62188C16.1103 10.7381 14.9151 11.1796 13.2497 11.7467C11.3295 12.4035 8.86374 12.2994 6.93636 12.3676C6.76408 12.3712 6.38722 12.3963 6.19341 12.4322C4.406 12.7301 3.3472 13.9827 3.20004 15.6445L3.19996 20.0009C3.19995 20.5532 3.64767 21.0009 4.19995 21.0009H11.2016C11.7539 21.0009 12.2016 20.5532 12.2016 20.0009L12.2017 15.5584C12.2986 15.3179 13.02 15.3143 13.4292 15.2066C14.8505 14.8262 21.8529 12.2599 19.5846 9.93055L19.9902 8.97942Z" stroke="white" stroke-width="1.5" stroke-linejoin="round"/>
<path d="M14.3132 3H22.1154" stroke="white" stroke-width="1.5"/>
<path d="M14.3132 5.94727H19.5147" stroke="white" stroke-width="1.5"/>
</svg>
