<svg width="21" height="20" viewBox="0 0 21 20" fill="none" xmlns="http://www.w3.org/2000/svg">
<path d="M14.4434 1V4.57092C14.4434 5.43418 15.1298 6.13772 15.9804 6.13772H19.3603" stroke="white" stroke-width="1.5" stroke-miterlimit="10" stroke-linejoin="round"/>
<path d="M16.9086 19H3.46633C2.11584 19 1.01904 17.8819 1.01904 16.5053V3.4947C1.01904 2.11805 2.11584 1 3.46633 1H14.4426L19.3558 6.13771V16.5053C19.3558 17.8819 18.2628 19 16.9086 19Z" stroke="white" stroke-width="1.5" stroke-miterlimit="10" stroke-linejoin="round"/>
<path d="M4 13.5L4.78107 11.8077M9.07692 13.5L8.29586 11.8077M4.78107 11.8077L6.53846 8L8.29586 11.8077M4.78107 11.8077H8.29586" stroke="white" stroke-width="1.5" stroke-linejoin="round"/>
<path d="M13.4614 8.4231V13.5" stroke="white" stroke-width="1.5" stroke-linejoin="round"/>
<path d="M10.9231 10.9615L16 10.9615" stroke="white" stroke-width="1.5" stroke-linejoin="round"/>
</svg>
