<svg width="19" height="18" viewBox="0 0 19 18" fill="none" xmlns="http://www.w3.org/2000/svg">
<path d="M14.2059 0.999878V6.21573C14.2059 8.90549 12.0549 11.0864 9.40194 11.0864C7.24614 11.0864 5.42495 9.647 4.81788 7.66481C4.67926 7.20924 4.60278 6.71976 4.60278 6.21573V0.999878H14.2059Z" stroke="white" stroke-width="1.5" stroke-miterlimit="10" stroke-linejoin="round"/>
<path d="M4.78951 7.47534C2.82492 6.68538 1.45783 5.13131 1.19971 1.88422H4.67957" stroke="white" stroke-width="1.5" stroke-miterlimit="10" stroke-linejoin="round"/>
<path d="M14.105 7.47534C16.0696 6.68538 17.4367 5.13131 17.6948 1.88422H14.2149" stroke="white" stroke-width="1.5" stroke-miterlimit="10" stroke-linejoin="round"/>
<path d="M9.4082 13.9442V11.3077" stroke="white" stroke-width="1.5" stroke-miterlimit="10" stroke-linejoin="round"/>
<path d="M12.9214 13.9451H5.89478V16.9547H12.9214V13.9451Z" stroke="white" stroke-width="1.5" stroke-miterlimit="10" stroke-linejoin="round"/>
<path d="M9.38083 3.48083L10.1425 5.02435L11.8454 5.27053L10.6112 6.47017L10.9041 8.16607L9.38083 7.36892L7.85756 8.16607L8.1505 6.47017L6.91626 5.27053L8.61919 5.02435L9.38083 3.48083Z" fill="white"/>
</svg>
