<svg width="25" height="24" viewBox="0 0 25 24" fill="none" xmlns="http://www.w3.org/2000/svg">
<path d="M5.79482 15.2866C6.76523 13.7581 7.2887 11.9939 7.2887 10.1784V9.04857C7.2887 6.12137 9.49399 3.75 12.5907 3.75C15.6875 3.75 18.0367 6.12188 18.0367 9.04857V10.1784C17.8531 12.3094 18.707 14.2293 19.3898 15.2896M14.7673 18.1022C14.7673 19.2894 13.7938 20.25 12.5908 20.25C11.3877 20.25 10.4143 19.2894 10.4143 18.1022M19.408 18.1021H5.7764C4.98661 18.1021 4.34375 17.4708 4.34375 16.6884C4.34375 15.909 4.98355 15.2746 5.7764 15.2746H19.4111C20.2009 15.2746 20.8438 15.906 20.8438 16.6884C20.8407 17.4708 20.1978 18.1021 19.408 18.1021Z" stroke="#313848" stroke-width="1.5" stroke-miterlimit="10" stroke-linejoin="round"/>
</svg>
